<svg height="554" viewBox="0 0 1000 554" width="1000" xmlns="http://www.w3.org/2000/svg" xmlns:xlink="http://www.w3.org/1999/xlink"><defs><symbol overflow="visible"><path d="M25.344-22.297L45.11-40.61 25.296-60.093l6.562-6.672L51.046-46.5l18.89-20.22 6.86 6.69L56.75-40.798 76.797-21.03l-6.516 6.514L50.876-34.86 32.203-14.515zM10.204 0H91.78v-81.578H10.204zm0 0"/></symbol><symbol id="a" overflow="visible"><path d="M63.72-11.875c-.58 1.797-1.564 2.766-3.345 3.406-2.703.986-7.25 1.44-12.672 1.44H31.28V-78.58c0-2.016 1.032-3.234 3.064-3.578L46.312-84v-5.984H6.282V-84l9.218 1.734c2.016.407 3 1.61 3 3.625v67.578c0 1.953-.984 3.234-3 3.578l-9.22 1.61V0H72.83c1.72-8.406 2.297-18.375 2.47-26.563l-6.626-.968zm0 0"/></symbol><symbol id="b" overflow="visible"><path d="M28.516-6.797c-6.625 0-9.735-3.28-9.735-8.984 0-7.095 5.064-10.267 14.407-11.064l11-.984v15.39c-4.03 3.33-10.14 5.64-15.67 5.64zM24.03 1.328c8.282 0 15.72-3.344 20.626-8.594C46.03-1.844 49.546.984 55.14.984c3.688 0 9.157-1.39 11.063-2.078v-5.468l-6.625-.58c-2.14-.233-3.297-1.217-3.297-3.686v-32.61c0-15.953-7.593-23.5-22.983-23.5-12.203 0-22.75 4.782-25.75 13.64l2.937 2.94c5.532-5.173 12.047-7.486 19.36-7.486 9.734 0 14.343 4.203 14.343 16.125v7.782l-13.25 1.094c-11.75.922-25.343 4.907-25.343 18.39 0 10.188 7.89 15.782 18.437 15.782zm0 0"/></symbol><symbol id="c" overflow="visible"><path d="M13.594-16.297c0 13.875 8.187 17.563 17.625 17.563 8.764 0 16.42-3.797 19.89-10.938l-3.58-3.297c-3 3.298-7.14 5.142-12.046 5.142-5.875 0-9.5-2.547-9.5-12.563v-37.047H47.47V-65.5H25.92l-.172-19.594h-7.14l-4.094 16.938c-.516 1.953-1.5 3-3.563 3.28l-7.328.985v5.64l9.97 1.266zm0 0"/></symbol><symbol id="d" overflow="visible"><path d="M28.234-65.094l-1.843-1.844c-6.624.172-14.92 1.032-21.546 3.047v5.64l8 1.156c2.015.282 3.062 1.563 3.062 3.625v42.923c0 2.016-1.156 3.235-3.172 3.578L5.64-5.874V0h32.782v-5.875L31.344-6.97c-2.016-.343-3.11-1.56-3.11-3.624zm.922-20.578c0-4.89-3.468-8.234-8.53-8.234-5.064 0-8.532 3.344-8.532 8.234 0 4.953 3.47 8.36 8.53 8.36 5.064 0 8.532-3.407 8.532-8.36zm0 0"/></symbol><symbol id="e" overflow="visible"><path d="M80.594 0v-5.875L73.516-6.97c-1.97-.296-3.11-1.5-3.11-3.514v-31.282c0-16.015-4.437-25.297-19.765-25.297-8.234 0-16.53 2.422-22.92 9.22l-.876-7.08-2.016-2.014c-6.22.11-13.703 1.14-19.984 3.046v5.64l8 1.156c2.015.282 3.062 1.563 3.062 3.625v42.923c0 2.016-1.156 3.28-3.172 3.578L5.64-5.874V0h31.985v-5.875L31.28-6.97c-1.952-.405-3.046-1.56-3.046-3.577v-42.28c5-3.75 11.063-5.595 17.157-5.595 10.032 0 12.688 6.172 12.688 18.906v29.032c0 2.125-1.328 3.171-3.11 3.515l-6.28 1.095V0zm0 0"/></symbol><symbol overflow="visible"><path d="M25.172-22.14L44.797-40.33 25.11-59.672l6.53-6.625 19.047 20.125L69.453-66.25l6.813 6.64L56.344-40.5l19.922 19.625-6.47 6.453-19.28-20.187L31.984-14.42zM10.125 0h81v-81h-81zm0 0"/></symbol><symbol id="f" overflow="visible"><path d="M11.61-65.39c4.062-3.204 10.124-5.83 15.796-5.83 9.89 0 13.844 8 13.844 18.423 0 14.125-7.328 23.625-17.688 23.625-6.11 0-12.343-3.437-17.906-9.906L1.61-35.406c5.25 9.265 14.187 15.734 25.218 15.734 15.047 0 25-11.844 25-28.094 0-10.187-3.312-18.187-9.89-24.14-5.266-4.813-12.422-8.235-20.422-8.235-6.407 0-12.25 1.874-17.047 4.906l5.718 9.843zM89.812-5.61l-4.58-9.953H83.75l-6.688 7.61c-.796.922-1.484 1.547-2 1.547-1.03 0-1.953-2.172-1.953-9.5v-60.297L63.046-80.03l-.97 1.03v58.234c0 8.813 1.19 13.438 4.454 17.797 2.69 3.486 5.892 4.58 8.642 4.58 4.64 0 10.703-3.094 14.64-7.22zm0 0"/></symbol><symbol id="g" overflow="visible"><path d="M4.578 27.063c0-4.985-2.922-9.735-7.03-13.157-3.44-2.86-8.017-5.094-13.517-5.094-4.686 0-9.655 1.547-14.92 5.83L-24.938 23h1.312c3.78-3.72 8.063-5.438 11.78-5.438 4.814 0 6.86 2.797 6.86 6.125 0 5.438-5.546 8.985-12.92 8.985-8.017 0-19.564-4.016-31.923-19.234l-4.984 3.843c11.67 17.44 27.234 25.173 40 25.173 12.703 0 19.39-7.5 19.39-15.39zm0 0"/></symbol><symbol id="h" overflow="visible"><path d="M75.688-19c0-9.828-4.344-20.188-10.016-29.11l25.453-24.203-6.86-7.546H82.5L59.094-57.202C48.454-70.14 34.266-80.14 20.874-80.14 8.875-80.14.86-72.08.86-62.08.86-50.75 11.046-41.25 22.312-41.25c9.093 0 16.25-6.297 16.25-15.734 0-3.72-1.094-7.266-2.922-9.89l.282-.517c6.406 3.374 12.53 9.03 17.516 15.67C41.766-40.452 36.266-31.47 36.266-22.42c0 6.97 3.265 13.047 7.734 17.39 4 4 9.266 6.86 14.922 6.86 9.844 0 16.766-8.47 16.766-20.828zM18.53-49.25c-4.796 0-7.655-3.61-7.655-8.984 0-7.328 5.25-12.422 13.266-12.422.75 0 1.547.062 2.297.125 2.282 2.905 3.032 6.28 3.032 9.093 0 7.89-5.736 12.187-10.94 12.187zm35.986 42.5c-5.094 0-8.172-4.406-8.172-11.094 0-8.703 5.03-16.36 13.093-24.265 3.485 6.704 5.61 13.735 5.61 19.907 0 8.812-4.344 15.453-10.53 15.453zm0 0"/></symbol><symbol id="i" overflow="visible"><path d="M56.922-54.063c0-7.156-3.953-14.296-10.063-19.328-4.985-4.063-11.39-6.704-18.766-6.704-7.735 0-15.11 2.813-19.625 6.75l6.467 9.266h1.422c5.328-4.11 11.39-6.75 17.734-6.75 8.234 0 12.64 4.47 12.64 11.625 0 9.437-8.343 19.437-22.875 23.28-1.657-7.843-4.126-10.468-7.61-10.468-3.266 0-5.438 2.218-7.375 5.265l-1.03 1.703c-2.017 3.156-2.86 5.953-2.86 8.078 0 4.797 4.796 7.14 12.406 7.094.688 0 1.376 0 2.063-.063C21.906-8.578 31.47 1.892 46.28 1.892c4.236 0 9.267-.86 13.736-2.64L60.64-2l-3.546-10.125c-3.313 1.547-8.063 2.86-12.532 2.86-7.03 0-15.734-3.032-19.28-15.797 15.624-3.08 31.64-14.532 31.64-29zm0 0"/></symbol><symbol id="j" overflow="visible"><path d="M38.39-5.61l-4.578-9.953h-1.484l-6.703 7.61c-.797.922-1.484 1.547-2 1.547-1.03 0-1.938-2.172-1.938-9.5v-60.297L11.61-80.03 10.64-79v58.234c0 8.813 1.204 13.438 4.47 17.797C17.796.517 21 1.61 23.733 1.61c4.64 0 10.703-3.094 14.657-7.22zm0 0"/></symbol><symbol id="k" overflow="visible"><path d="M79.172-5.61l-4.578-9.953H73.11l-6.688 7.61c-.797.922-1.484 1.547-2 1.547-1.03 0-1.953-2.172-1.953-9.5v-60.297L52.405-80.03 51.438-79v19.844l-16.89-.047c-14.986-.063-29.564 4.86-29.564 22.25 0 12.875 8.75 27.172 23.672 38.734l4.407-4.64C21.733-14.187 16.64-24.483 16.64-33.983c0-11.438 6.813-14.703 23.922-14.75 3.266 0 7.094.047 10.876.172v27.796c0 8.813 1.187 13.438 4.453 17.797 2.688 3.486 5.89 4.58 8.64 4.58 4.642 0 10.704-3.094 14.642-7.22zm0 0"/></symbol><symbol id="l" overflow="visible"><path d="M38.39-5.61l-4.578-9.953h-1.484l-6.703 7.61c-.797.922-1.484 1.547-2 1.547-1.03 0-1.938-2.172-1.938-9.5v-54.11c0-23.296-11.28-45.89-31.36-45.89-11.843 0-19.218 8.062-19.218 17.797 0 3.61.968 7.157 2.406 10.235l10.36 3.547.905-.97c-1.42-2.92-2.342-6.514-2.342-9.436 0-5.61 3.265-11.672 11.218-11.672 12.922 0 16.985 14.015 16.985 33.125v52.514c0 8.813 1.204 13.438 4.47 17.797C17.796.517 21 1.61 23.733 1.61c4.64 0 10.703-3.094 14.657-7.22zm0 0"/></symbol><symbol overflow="visible"><path d="M25.172-22.14L44.797-40.33 25.11-59.672l6.53-6.625 19.047 20.125L69.453-66.25l6.813 6.64L56.344-40.5l19.922 19.625-6.47 6.453-19.28-20.187L31.984-14.42zM10.125 0h81v-81h-81zm0 0"/></symbol><symbol id="m" overflow="visible"><path d="M12.813-63.61c3.953-3.374 9.843-6.234 15.453-6.234 9.14 0 12.64 7.313 12.64 16.75 0 13.797-7.437 22.203-17.11 22.203-5.952 0-11.952-3.266-17.327-9.438l-5.095 4.234c5.203 9.328 14.422 16.64 26.656 16.64 15.454 0 25.345-11.718 25.345-27.515 0-10.06-3.484-18.31-10.234-24.546-5.562-5.14-12.984-8.92-21.624-8.92-6.703 0-12.64 1.952-17.516 5.264l7.047 11.563zM92.563-6l-5.5-11.5h-1.766l-6 7.89c-.813 1.204-1.5 2.063-2.125 2.063-1.03 0-1.766-2.297-1.766-9.562V-75.92L63.22-80.484l-1.204 1.187v57.094c0 9.28 1.312 14.015 4.797 18.656 3.093 3.89 6.703 5.203 9.953 5.203C82.03 1.656 88.22-1.437 92.562-6zm0 0"/></symbol><symbol id="n" overflow="visible"><path d="M4.234 28.203c0-5.14-2.86-10.125-6.984-13.844-3.656-3.438-8.47-6-14.703-6-5.094 0-10.063 1.656-15.61 6.17l6.75 9.548h1.485c3.656-3.547 8.187-5.312 12.015-5.312 4.454 0 6.516 2.453 6.516 5.78 0 5.485-5.547 8.642-12.875 8.642-8.578 0-19.562-4.188-32.14-19.407l-5.782 4.36C-45.14 36.78-29.297 44.5-16.124 44.5c13.436 0 20.358-7.766 20.358-16.297zm0 0"/></symbol><symbol id="o" overflow="visible"><path d="M77.97-18.875c0-9.734-4.454-20.03-10.064-28.78l25.28-23.454-8.06-9.03h-1.94L59.892-58.298C49.08-70.827 34.845-80.437 21-80.437 8.297-80.438.172-72.376.172-62.078c0 11.968 11.094 21.92 22.828 21.92 9.328 0 16.297-6.234 16.297-15.562 0-3.608-1.03-7.093-3.078-9.952l.28-.578c6.172 3.03 12.016 8.125 16.766 14.14-11.5 10.922-16.875 19.5-16.875 28.485 0 7.328 3.657 13.672 8.282 18.188 4.36 4.17 10.016 7.265 16.078 7.265 9.953 0 17.22-8.234 17.22-20.703zm-59.314-30.5c-4.53 0-6.875-3.484-6.875-8.172 0-6.75 4.75-11.672 13.048-11.672.406 0 .797 0 1.203.048 1.94 2.53 2.69 5.61 2.69 8.297 0 7.266-5.095 11.5-10.064 11.5zm36.72 41.188c-4.517 0-7.204-3.938-7.204-10.063 0-8.063 4.687-15.156 12.36-22.547 3.03 6.125 4.86 12.422 4.86 17.906 0 8.468-4.345 14.703-10.017 14.703zm0 0"/></symbol><symbol id="p" overflow="visible"><path d="M58.53-52.97c0-7.5-4.468-15.218-10.874-20.42-5.5-4.532-12.187-6.985-19.453-6.985-7.78 0-15.39 2.797-20.312 7.203l7.782 10.766h1.72c5.374-4.532 11.39-7.094 17.796-7.094 7.374 0 11.328 3.656 11.328 10.297 0 9.094-7.735 18.25-21.407 21.672-1.547-7.657-4.344-10.236-7.954-10.236-3.375 0-5.89 2.282-8.062 5.657l-1.078 1.657c-2.188 3.375-3.157 6.422-3.157 8.64 0 5.33 5.327 7.954 14.015 7.844.47 0 .86 0 1.313-.06 2.53 15.905 12.015 25.92 26.67 25.92 4.455 0 9.892-.92 14.876-2.812l.735-1.656-4.454-11.61c-3.547 1.766-8.703 3.204-13.22 3.204-6.577 0-14.483-2.86-17.905-13.782C42.735-27.75 58.53-38.672 58.53-52.97zm0 0"/></symbol><symbol id="q" overflow="visible"><path d="M40.797-6l-5.5-11.5H33.53l-6.014 7.89c-.797 1.204-1.485 2.063-2.11 2.063-1.03 0-1.78-2.297-1.78-9.562V-75.92l-12.19-4.562-1.202 1.187v57.094c0 9.28 1.329 14.015 4.813 18.656C18.14.343 21.734 1.656 25 1.656c5.266 0 11.438-3.093 15.797-7.656zm0 0"/></symbol><symbol id="r" overflow="visible"><path d="M82.094-6l-5.5-11.5h-1.766l-6 7.89c-.812 1.204-1.5 2.063-2.125 2.063-1.03 0-1.766-2.297-1.766-9.562V-75.92L52.75-80.484l-1.203 1.187V-59.5l-17.453-.172C18.36-59.782 4.578-53.72 4.578-37.47c0 12.58 9.094 27.407 24.594 39.36l5.156-5.202C23.734-14.533 18.766-24.547 18.766-33.47c0-10.358 6.125-13.733 21.86-13.78 3.546 0 7.265 0 10.92.11v24.937c0 9.28 1.313 14.015 4.798 18.656 3.093 3.89 6.703 5.203 9.953 5.203 5.266 0 11.453-3.093 15.797-7.656zm0 0"/></symbol><symbol id="s" overflow="visible"><path d="M40.797-6l-5.5-11.5H33.53l-6.014 7.89c-.797 1.204-1.485 2.063-2.11 2.063-1.03 0-1.78-2.297-1.78-9.562v-52.17c0-23.736-12.923-47.36-34.548-47.36-11.734 0-19.687 7.265-19.687 17.328 0 3.656 1.032 7.546 2.47 10.703l12.343 4.172 1.094-1.203c-1.375-2.688-2.28-6.407-2.28-9.204 0-5.265 3.202-10.703 10.405-10.703 12.297 0 16.812 12.36 16.812 31.922v51.422c0 9.28 1.329 14.015 4.813 18.656C18.14.343 21.734 1.656 25 1.656c5.266 0 11.438-3.093 15.797-7.656zm0 0"/></symbol><symbol overflow="visible"><path d="M25.172-22.14L44.797-40.33 25.11-59.672l6.53-6.625 19.047 20.125L69.453-66.25l6.813 6.64L56.344-40.5l19.922 19.625-6.47 6.453-19.28-20.187L31.984-14.42zM10.125 0h81v-81h-81zm0 0"/></symbol><symbol id="t" overflow="visible"><path d="M10.406-67.156c4.235-3.03 10.47-5.438 16.078-5.438 10.703 0 15.11 8.75 15.11 20.078 0 14.47-7.157 25-18.25 25-6.235 0-12.813-3.547-18.485-10.297l-3.032 3.094c5.375 9.267 13.97 14.814 23.86 14.814 14.593 0 24.593-12.016 24.593-28.72 0-10.233-3.202-18.015-9.483-23.687-4.984-4.453-11.97-7.546-19.28-7.546-6.126 0-11.845 1.83-16.658 4.58l4.468 8.124zm76.61 61.953L83.36-13.61h-1.157l-7.375 7.266c-.75.688-1.437 1.078-1.89 1.078-1.032 0-2.11-2.11-2.11-9.437v-61.78l-7.906-3.095-.797.797v59.436c0 8.297 1.14 12.875 4.172 17C68.53.687 71.344 1.61 73.517 1.61c4.06 0 9.952-3.094 13.5-6.813zm0 0"/></symbol><symbol id="u" overflow="visible"><path d="M4.86 25.97c0-4.86-2.923-9.376-7.032-12.47-3.203-2.406-7.5-4.234-12.36-4.234-4.296 0-9.265 1.437-14.25 5.5l5.22 7.093h1.078c3.89-3.89 8.062-5.438 11.672-5.438 5.03 0 7.203 3.03 7.203 6.406 0 5.438-5.656 9.328-13.03 9.328-7.39 0-19.58-3.843-31.75-19l-4.126 3.266c11.438 16.187 26.657 24.03 39.078 24.03 11.954 0 18.297-7.327 18.297-14.483zm0 0"/></symbol><symbol id="v" overflow="visible"><path d="M73.344-19.172c0-9.78-4.125-20.297-9.78-29.344l25.452-25-5.547-6.062h-1.61L58.296-56.125C47.937-69.39 33.64-79.86 20.767-79.86c-11.33 0-19.22 8-19.22 17.844 0 10.64 9.265 19.688 20.015 19.688 8.985 0 16.25-6.297 16.25-15.97 0-3.78-1.078-7.327-2.796-9.843l.343-.39c6.515 3.718 12.92 10 18.078 17.264l-.172.172C41.594-39.47 36.22-30.266 36.22-21.172c0 6.64 2.858 12.36 7.03 16.594 3.78 3.78 8.578 6.36 13.844 6.36 9.718 0 16.25-8.704 16.25-20.954zM18.422-49.078c-5.094 0-8.47-3.844-8.47-9.844 0-7.89 5.782-13.156 13.5-13.156 1.142 0 2.298.11 3.485.344 2.58 3.203 3.22 6.968 3.22 9.718 0 8.578-6.298 12.938-11.735 12.938zM53.61-5.266c-5.61 0-9.11-4.86-9.11-12.234 0-9.156 5.438-17.563 13.797-25.922 3.937 7.375 6.344 15.11 6.344 21.906 0 9.094-4.28 16.25-11.03 16.25zm0 0"/></symbol><symbol id="w" overflow="visible"><path d="M55.313-55.14c0-6.766-3.422-13.454-9.204-18.204-4.516-3.72-10.704-6.47-18.188-6.47-7.61 0-14.766 2.814-18.938 6.298l5.266 7.782h1.078C20.53-69.5 26.656-72.14 33.016-72.14c9.03 0 13.953 5.328 13.953 12.937 0 9.78-8.986 20.64-24.314 24.875-1.828-8-3.953-10.64-7.328-10.64-3.078 0-5.03 2.17-6.625 4.86l-1.03 1.717c-1.782 2.984-2.642 5.5-2.642 7.437 0 4.406 4.345 6.406 10.94 6.406.905 0 1.764-.047 2.686-.11 2.39 15.5 12.125 26.548 27 26.548 4 0 8.688-.796 12.64-2.406l.563-.968-2.688-8.579c-3.14 1.36-7.484 2.516-11.828 2.516-7.438 0-16.938-3.094-20.547-17.86 15.28-3.202 31.515-14.984 31.515-29.734zm0 0"/></symbol><symbol id="x" overflow="visible"><path d="M35.922-5.203l-3.656-8.406h-1.14l-7.392 7.266c-.734.688-1.422 1.078-1.875 1.078-1.032 0-2.126-2.11-2.126-9.437v-61.78l-7.89-3.095-.797.797v59.436c0 8.297 1.14 12.875 4.172 17C17.452.687 20.25 1.61 22.42 1.61c4.062 0 9.953-3.094 13.5-6.813zm0 0"/></symbol><symbol id="y" overflow="visible"><path d="M76.266-5.203l-3.672-8.406h-1.14l-7.376 7.266c-.75.688-1.437 1.078-1.89 1.078-1.032 0-2.126-2.11-2.126-9.437v-61.78l-7.89-3.095-.797.797v20.03H35.062c-14.296 0-29.687 3.72-29.687 22.25 0 13.156 8.406 27.063 22.72 38.11l3.718-4.016C19.797-13.78 14.53-24.422 14.53-34.438c0-12.593 7.5-15.734 25.97-15.734 2.984 0 6.984.063 10.875.172v30.656c0 8.297 1.14 12.875 4.172 17C57.78.687 60.577 1.61 62.75 1.61c4.063 0 9.97-3.094 13.516-6.813zm0 0"/></symbol><symbol id="z" overflow="visible"><path d="M35.922-5.203l-3.656-8.406h-1.14l-7.392 7.266c-.734.688-1.422 1.078-1.875 1.078-1.032 0-2.126-2.11-2.126-9.437v-56c0-22.953-9.547-44.406-28.14-44.406-11.906 0-18.766 8.813-18.766 18.204 0 3.547.97 6.797 2.28 9.78l8.47 2.86.688-.687c-1.485-3.094-2.407-6.578-2.407-9.672 0-5.953 3.328-12.64 11.968-12.64 13.61 0 17.22 15.734 17.22 34.39v53.53c0 8.298 1.14 12.876 4.17 17C17.454.69 20.25 1.61 22.423 1.61c4.062 0 9.953-3.094 13.5-6.813zm0 0"/></symbol></defs><g><use x="13.241" xlink:href="#a" y="125.179"/><use x="91.976" xlink:href="#b" y="125.179"/><use x="161.385" xlink:href="#c" y="125.179"/><use x="214.15" xlink:href="#d" y="125.179"/><use x="256.646" xlink:href="#e" y="125.179"/><use x="13.241" xlink:href="#a" y="502.917"/><use x="91.976" xlink:href="#b" y="502.917"/><use x="161.385" xlink:href="#c" y="502.917"/><use x="214.15" xlink:href="#d" y="502.917"/><use x="256.646" xlink:href="#e" y="502.917"/><use x="13.241" xlink:href="#a" y="315.989"/><use x="91.976" xlink:href="#b" y="315.989"/><use x="161.385" xlink:href="#c" y="315.989"/><use x="214.15" xlink:href="#d" y="315.989"/><use x="256.646" xlink:href="#e" y="315.989"/><use x="449.746" xlink:href="#f" y="502.883"/><use x="538.479" xlink:href="#g" y="502.883"/><use x="538.479" xlink:href="#h" y="502.883"/><use x="634.949" xlink:href="#i" y="502.883"/><use x="699.535" xlink:href="#j" y="502.883"/><use x="736.927" xlink:href="#k" y="502.883"/><use x="815.111" xlink:href="#l" y="502.883"/><path d="M387.04 34.86H6M387.04 412.563H6M387.04 59.316H6M387.04 437.02H6M387.04 125.63H6M387.04 503.332H6M387.04 225.57H6M387.04 250.027H6M387.04 316.34H6M915.977 412.563H403.04M915.977 437.02H403.04M915.977 503.332H403.04" fill="none" stroke-width=".5" stroke="rgb(80.392456%,8.235168%,16.862488%)"/><use x="449.746" xlink:href="#m" y="315.89"/><use x="540.003" xlink:href="#n" y="315.89"/><use x="540.003" xlink:href="#o" y="315.89"/><use x="636.004" xlink:href="#p" y="315.89"/><use x="701.528" xlink:href="#q" y="315.89"/><use x="739.975" xlink:href="#r" y="315.89"/><use x="819.799" xlink:href="#s" y="315.89"/><path d="M915.977 225.57H403.04M915.977 250.027H403.04M915.977 316.34H403.04" fill="none" stroke-width=".5" stroke="rgb(80.392456%,8.235168%,16.862488%)"/><use x="449.746" xlink:href="#t" y="125.179"/><use x="536.956" xlink:href="#u" y="125.179"/><use x="536.956" xlink:href="#v" y="125.179"/><use x="633.894" xlink:href="#w" y="125.179"/><use x="697.777" xlink:href="#x" y="125.179"/><use x="733.88" xlink:href="#y" y="125.179"/><use x="810.305" xlink:href="#z" y="125.179"/><path d="M915.977 34.86H403.04M915.977 59.316H403.04M915.977 125.63H403.04" fill="none" stroke-width=".5" stroke="rgb(80.392456%,8.235168%,16.862488%)"/></g></svg>