<svg height="250" viewBox="0 0 1000 250" width="1000" xmlns="http://www.w3.org/2000/svg" xmlns:xlink="http://www.w3.org/1999/xlink"><defs><symbol overflow="visible"><path d="M41.75-36.72l32.53-30.17-32.64-32.063 10.83-11 31.593 33.39 31.11-33.296 11.296 11L93.452-67.17l33.016 32.547-10.72 10.72-31.984-33.486L53.03-23.907zM16.797 0h134.328v-134.344H16.797zm0 0"/></symbol><symbol id="a" overflow="visible"><path d="M86.047-52.938c0 31.016-7.688 43.266-23.906 43.266C42.688-9.672 37-26 37-55.594 37-86.72 44.688-98.86 60.906-98.86c19.36 0 25.14 16.126 25.14 45.922zm-76.375-.468c0 35.093 16.515 55.78 50.094 55.78 29.89 0 53.515-16.515 53.515-57.405 0-35.095-16.42-55.782-50.093-55.782-29.796 0-53.515 16.515-53.515 57.406zm0 0"/></symbol><symbol id="b" overflow="visible"><path d="M9.672-52.938c0 32.735 15.656 55.313 48.953 55.313 22.11 0 38.047-10.063 43.078-26l-6.922-4.36c-6.264 8.72-17.17 13.844-29.03 13.844-18.78 0-30.078-11.563-30.078-43.83v-1.796h65.266c.86-4.172 1.328-9.875 1.328-13.86 0-23.42-15.08-37.186-40.89-37.186-31.97 0-51.704 20.968-51.704 57.874zm48.953-46.015c12.906 0 19.734 9.78 19.734 23.812 0 1.703-.094 3.03-.188 4.468H36.328c2.28-20.312 10.344-28.28 22.297-28.28zm0 0"/></symbol><symbol id="c" overflow="visible"><path d="M115.547 10.625c0-18.03-12.422-27.703-36.61-27.703h-21.92c-15.173 0-21.064-2.563-21.064-10.063 0-3.782 1.516-6.922 4.36-9.485 4.468.953 9.406 1.422 14.906 1.422 30.17 0 46.67-15.64 46.67-39.266 0-6.452-1.234-12.046-3.515-16.796h20.78v-18.03c-3.03-.75-7.014-1.704-10.343-1.704-6.36 0-12.515 3.703-18.11 9.766-7.5-6.25-18.405-9.58-31.983-9.58-27.704 0-47.236 13.19-47.236 39.095 0 14.986 6.547 26.19 19.532 32.064-8.063 3.89-14.032 10.062-14.032 20.203 0 7.5 3.313 13.094 10.25 16.422C15.656 1.89 7.874 9.67 7.874 22.483c0 17.64 14.704 29.89 46.392 29.89 36.437 0 61.28-16.233 61.28-41.75zM58.625 39.75c-20.203 0-26.656-9.11-26.656-21.438 0-7.875 2.655-13.656 6.358-18.125 3.03.485 6.453.672 10.25.672h22.766C86.328.86 90.61 5.78 90.61 15.47c0 16.218-12.72 24.28-31.985 24.28zM36.905-73.72c0-19.827 8.157-25.796 19.83-25.796 13.937 0 20.203 7.782 20.203 26.47 0 18.218-6.157 26.28-19.344 26.28-14.328 0-20.688-8.922-20.688-26.953zm0 0"/></symbol><symbol id="d" overflow="visible"><path/></symbol><symbol id="e" overflow="visible"><path d="M107.578-28.47c0-13.655-8.72-28.077-25.984-38.89.375-.374.75-.765 1.14-1.046 27.22-23.328 60.907-47.235 89.735-47.235 12.06 0 17.468 4.453 17.468 11.75 0 13.187-17.172 19.64-31.688 25.25-21.453 8.437-40.797 16.78-40.797 37 0 11.656 6.453 22.187 16.125 30.343 9.766 8.453 23.156 14.422 40.984 14.422 19.64 0 39.188-7.203 51.985-21.438l-13.47-16.984h-2.936C198.19-22.203 179.314-14.61 163.08-14.61c-15.547 0-24.953-7.968-24.953-18.5 0-13.28 13.578-18.687 34.156-26.656 13.954-5.406 38.236-14.797 38.236-35.015 0-9.86-5.875-19.83-14.422-26.94-8.156-6.733-19.438-11.67-34.72-11.67-31.874 0-64.124 21.437-98.952 53.42-.188.19-.375.282-.563.47-10.438-6.734-15.094-12.813-15.094-19.36 0-10.14 10.062-14.89 24.015-15.17l2.173-2.095-5.5-16.797c-2.656-.28-5.5-.47-8.156-.47-19.172 0-34.344 11.204-34.344 27.986 0 13.578 10.047 25.234 27.422 34.828-6.734 6.437-13.484 13.094-19.172 18.97L49.625-37c7.39-7.688 14.89-14.984 22-21.53 10.063 7.39 14.422 14.89 14.422 22.858 0 13.375-12.328 20.5-26.094 20.5-14.984 0-31.11-8.36-46.672-28.28l-9.014 6.827c15.28 26.766 38.14 39.75 62.718 39.75 24.375 0 40.594-12.984 40.594-31.594zm0 0"/></symbol><symbol id="f" overflow="visible"><path d="M127.89-88.234c0-11.188-7.5-21.438-14.796-27.797-8.453-7.392-18.125-11.19-28.188-11.19-8.922 0-19.922 3.032-29.03 10.72l10.437 16.03h2.843c8.156-6.264 17.266-9.483 24.485-9.483 8.626 0 14.516 4.547 14.516 12.703 0 11.016-11.484 23.625-38.234 26.766L68.016-68.5l7.593 16.516c10.156-.86 18.874-2.844 26.187-5.703 7.11 5.984 10.53 12.812 10.53 19.828 0 13.58-12.53 22.58-30.358 22.58-33.11 0-51.142-30.548-51.142-65.36 0-40.313 24.11-65.657 60.906-65.657 19.547 0 40.704 7.125 50 20.97 4.078 5.983 7.125 14.702 7.125 31.593v56.92c0 15.377 2.17 23.252 7.968 30.94 5.11 6.436 11.094 8.624 16.5 8.624 8.734 0 18.97-5.125 26.188-12.72l-9.11-19.06h-2.937l-9.97 13.093c-1.328 1.984-2.47 3.42-3.5 3.42-1.72 0-2.953-3.702-2.953-15.75v-61.577c0-42.312-43.64-74.562-88.89-74.562-46.86 0-72.485 34.344-72.485 73.515 0 26.562 11.765 51.14 26.953 67.843C50.845-7.203 69.345 3.125 90.797 3.125c25.984 0 43.344-15.453 43.344-34.25 0-13.656-9.093-25.422-21.718-31.97 10.156-6.64 15.47-15.452 15.47-25.14zm0 0"/></symbol></defs><g><use x="9.284" xlink:href="#a" y="179.836"/><use x="132.335" xlink:href="#b" y="179.836"/><use x="244.306" xlink:href="#c" y="179.836"/><use x="367.357" xlink:href="#d" y="179.836"/><use x="421.204" xlink:href="#d" y="179.836"/><use x="475.051" xlink:href="#e" y="179.836"/><use x="702.102" xlink:href="#f" y="179.836"/><path d="M635.398 146.84l-49.777 47.437M689.75 40.848L639.97 88.28M771.02 135.473l-61.684 58.804M181.074 50.012l30.75 153.77M868.828 15.613l-85.836 81.89M64.734 51.172L75.207 200.93M296.84 51.172l7.473 106.875" fill="none" stroke-width="2" stroke="rgb(80.392456%,8.235168%,16.862488%)"/><path d="M916 181.828H6M916 69.22H6M916 45.984H6" fill="none" stroke-width=".5" stroke="rgb(80.392456%,8.235168%,16.862488%)"/></g></svg>