<svg height="540" viewBox="0 0 1000 540" width="1000" xmlns="http://www.w3.org/2000/svg" xmlns:xlink="http://www.w3.org/1999/xlink"><defs><symbol overflow="visible"><path d="M25.344-22.297L45.11-40.61 25.296-60.093l6.562-6.672L51.046-46.5l18.89-20.22 6.86 6.69L56.75-40.798 76.797-21.03l-6.516 6.514L50.876-34.86 32.203-14.515zM10.204 0H91.78v-81.578H10.204zm0 0"/></symbol><symbol id="a" overflow="visible"><path d="M63.72-11.875c-.58 1.797-1.564 2.766-3.345 3.406-2.703.986-7.25 1.44-12.672 1.44H31.28V-78.58c0-2.016 1.032-3.234 3.064-3.578L46.312-84v-5.984H6.282V-84l9.218 1.734c2.016.407 3 1.61 3 3.625v67.578c0 1.953-.984 3.234-3 3.578l-9.22 1.61V0H72.83c1.72-8.406 2.297-18.375 2.47-26.563l-6.626-.968zm0 0"/></symbol><symbol id="b" overflow="visible"><path d="M28.516-6.797c-6.625 0-9.735-3.28-9.735-8.984 0-7.095 5.064-10.267 14.407-11.064l11-.984v15.39c-4.03 3.33-10.14 5.64-15.67 5.64zM24.03 1.328c8.282 0 15.72-3.344 20.626-8.594C46.03-1.844 49.546.984 55.14.984c3.688 0 9.157-1.39 11.063-2.078v-5.468l-6.625-.58c-2.14-.233-3.297-1.217-3.297-3.686v-32.61c0-15.953-7.593-23.5-22.983-23.5-12.203 0-22.75 4.782-25.75 13.64l2.937 2.94c5.532-5.173 12.047-7.486 19.36-7.486 9.734 0 14.343 4.203 14.343 16.125v7.782l-13.25 1.094c-11.75.922-25.343 4.907-25.343 18.39 0 10.188 7.89 15.782 18.437 15.782zm0 0"/></symbol><symbol id="c" overflow="visible"><path d="M13.594-16.297c0 13.875 8.187 17.563 17.625 17.563 8.764 0 16.42-3.797 19.89-10.938l-3.58-3.297c-3 3.298-7.14 5.142-12.046 5.142-5.875 0-9.5-2.547-9.5-12.563v-37.047H47.47V-65.5H25.92l-.172-19.594h-7.14l-4.094 16.938c-.516 1.953-1.5 3-3.563 3.28l-7.328.985v5.64l9.97 1.266zm0 0"/></symbol><symbol id="d" overflow="visible"><path d="M28.234-65.094l-1.843-1.844c-6.624.172-14.92 1.032-21.546 3.047v5.64l8 1.156c2.015.282 3.062 1.563 3.062 3.625v42.923c0 2.016-1.156 3.235-3.172 3.578L5.64-5.874V0h32.782v-5.875L31.344-6.97c-2.016-.343-3.11-1.56-3.11-3.624zm.922-20.578c0-4.89-3.468-8.234-8.53-8.234-5.064 0-8.532 3.344-8.532 8.234 0 4.953 3.47 8.36 8.53 8.36 5.064 0 8.532-3.407 8.532-8.36zm0 0"/></symbol><symbol id="e" overflow="visible"><path d="M80.594 0v-5.875L73.516-6.97c-1.97-.296-3.11-1.5-3.11-3.514v-31.282c0-16.015-4.437-25.297-19.765-25.297-8.234 0-16.53 2.422-22.92 9.22l-.876-7.08-2.016-2.014c-6.22.11-13.703 1.14-19.984 3.046v5.64l8 1.156c2.015.282 3.062 1.563 3.062 3.625v42.923c0 2.016-1.156 3.28-3.172 3.578L5.64-5.874V0h31.985v-5.875L31.28-6.97c-1.952-.405-3.046-1.56-3.046-3.577v-42.28c5-3.75 11.063-5.595 17.157-5.595 10.032 0 12.688 6.172 12.688 18.906v29.032c0 2.125-1.328 3.171-3.11 3.515l-6.28 1.095V0zm0 0"/></symbol><symbol overflow="visible"><path d="M21.313-18.75l16.625-15.406L21.265-50.53l5.53-5.626L42.94-39.11l15.89-17 5.766 5.626-16.86 16.172 16.86 16.624-5.485 5.485-16.33-17.11-15.702 17.11zM8.578 0h68.61v-68.61H8.578zm0 0"/></symbol><symbol id="f" overflow="visible"><path d="M10.86-53.875c3.343-2.86 8.328-5.28 13.078-5.28 7.75 0 10.703 6.202 10.703 14.186 0 11.69-6.296 18.798-14.484 18.798-5.03 0-10.125-2.75-14.687-7.984l-4.314 3.578c4.422 7.906 12.22 14.11 22.594 14.11 13.078 0 21.453-9.938 21.453-23.313 0-8.532-2.953-15.5-8.672-20.782-4.702-4.36-11-7.563-18.31-7.563-5.673 0-10.704 1.64-14.83 4.453l5.954 9.797zm67.53 48.78l-4.64-9.733h-1.5L67.156-8.14c-.672 1.015-1.265 1.75-1.797 1.75-.876 0-1.5-1.938-1.5-8.094v-49.813l-10.313-3.875-1.016 1.016v48.36c0 7.843 1.11 11.874 4.064 15.796 2.61 3.297 5.672 4.406 8.437 4.406 4.454 0 9.69-2.625 13.36-6.5zm0 0"/></symbol><symbol id="g" overflow="visible"><path d="M3.578 23.89c0-4.36-2.422-8.578-5.906-11.734C-5.422 9.25-9.5 7.078-14.78 7.078c-4.314 0-8.533 1.406-13.22 5.234l5.72 8.094h1.25c3.108-3.015 6.936-4.515 10.17-4.515 3.782 0 5.532 2.08 5.532 4.89 0 4.657-4.703 7.33-10.906 7.33-7.266 0-16.563-3.547-27.235-16.438l-4.89 3.687c10.126 15.796 23.547 22.343 34.704 22.343 11.375 0 17.234-6.594 17.234-13.812zm0 0"/></symbol><symbol id="h" overflow="visible"><path d="M66.047-15.984c0-8.25-3.78-16.97-8.53-24.375l21.42-19.874-6.843-7.657h-1.64l-19.72 18.515c-9.156-10.61-21.218-18.75-32.953-18.75C7.03-68.125.14-61.297.14-52.578c0 10.125 9.407 18.562 19.344 18.562 7.89 0 13.797-5.28 13.797-13.172 0-3.062-.858-6.015-2.608-8.437l.234-.484c5.235 2.563 10.188 6.876 14.203 11.97-9.735 9.25-14.297 16.515-14.297 24.124 0 6.203 3.11 11.578 7.03 15.407 3.688 3.548 8.485 6.157 13.61 6.157 8.438 0 14.594-6.97 14.594-17.53zm-50.25-25.828c-3.828 0-5.813-2.954-5.813-6.938 0-5.72 4.016-9.875 11.047-9.875.345 0 .673 0 1.017.047 1.64 2.125 2.28 4.75 2.28 7.03 0 6.142-4.31 9.736-8.53 9.736zm31.11 34.89c-3.83 0-6.11-3.344-6.11-8.53 0-6.83 3.97-12.845 10.47-19.095 2.56 5.188 4.108 10.516 4.108 15.172 0 7.172-3.672 12.453-8.47 12.453zm0 0"/></symbol><symbol id="i" overflow="visible"><path d="M49.563-44.875c0-6.344-3.782-12.875-9.204-17.297-4.657-3.828-10.313-5.906-16.47-5.906-6.593 0-13.03 2.375-17.203 6.11l6.594 9.11h1.454c4.547-3.83 9.64-6.017 15.063-6.017 6.25 0 9.594 3.11 9.594 8.72 0 7.702-6.546 15.468-18.124 18.374-1.297-6.5-3.672-8.673-6.735-8.673-2.858 0-4.983 1.937-6.827 4.797L6.78-34.25c-1.843 2.86-2.655 5.422-2.655 7.313 0 4.5 4.5 6.734 11.86 6.64.39 0 .734 0 1.124-.047C19.233-6.874 27.28 1.594 39.687 1.594c3.78 0 8.374-.766 12.593-2.375l.626-1.407-3.78-9.83c-3 1.5-7.36 2.72-11.188 2.72-5.58 0-12.25-2.422-15.172-11.687C36.188-23.5 49.563-32.75 49.563-44.874zm0 0"/></symbol><symbol id="j" overflow="visible"><path d="M34.547-5.094l-4.656-9.734h-1.5L23.313-8.14c-.687 1.015-1.265 1.75-1.796 1.75-.875 0-1.5-1.938-1.5-8.094v-49.813L9.688-68.172l-1.016 1.016v48.36c0 7.843 1.11 11.874 4.078 15.796 2.61 3.297 5.656 4.406 8.422 4.406 4.453 0 9.687-2.625 13.375-6.5zm0 0"/></symbol><symbol id="k" overflow="visible"><path d="M69.53-5.094l-4.655-9.734h-1.5L58.297-8.14C57.61-7.126 57.03-6.39 56.5-6.39c-.875 0-1.5-1.938-1.5-8.094v-49.813l-10.328-3.875-1.016 1.016v16.765l-14.78-.14c-13.33-.11-25 5.03-25 18.796 0 10.656 7.702 23.203 20.843 33.328l4.358-4.407c-8.97-9.5-13.187-17.968-13.187-25.53 0-8.766 5.188-11.626 18.516-11.673 3 0 6.157 0 9.25.094v21.125c0 7.844 1.11 11.875 4.078 15.797 2.61 3.297 5.657 4.406 8.422 4.406 4.453 0 9.688-2.625 13.375-6.5zm0 0"/></symbol><symbol id="l" overflow="visible"><path d="M34.547-5.094l-4.656-9.734h-1.5L23.313-8.14c-.687 1.015-1.265 1.75-1.796 1.75-.875 0-1.5-1.938-1.5-8.094v-44.188c0-20.11-10.953-40.125-29.266-40.125-9.938 0-16.672 6.156-16.672 14.688 0 3.094.875 6.39 2.078 9.063l10.47 3.53.92-1.014c-1.155-2.282-1.937-5.44-1.937-7.814 0-4.453 2.718-9.047 8.812-9.047 10.422 0 14.25 10.453 14.25 27.03v43.563c0 7.844 1.11 11.875 4.078 15.797 2.61 3.297 5.656 4.406 8.422 4.406 4.453 0 9.687-2.625 13.375-6.5zm0 0"/></symbol><symbol overflow="visible"><path d="M28.984-25.5l22.594-20.938-22.656-22.265 7.515-7.656 21.938 23.204L79.97-76.28l7.843 7.64-22.922 22 22.922 22.593-7.437 7.453L58.172-39.86 36.828-16.593zM11.656 0h93.28v-93.28h-93.28zm0 0"/></symbol><symbol id="m" overflow="visible"><path d="M11.984-77.344c4.875-3.484 12.063-6.25 18.516-6.25 12.328 0 17.39 10.078 17.39 23.125 0 16.657-8.234 28.782-21.015 28.782-7.172 0-14.75-4.078-21.28-11.86l-3.486 3.564c6.187 10.672 16.078 17.062 27.468 17.062 16.797 0 28.328-13.844 28.328-33.078 0-11.78-3.687-20.75-10.937-27.266-5.736-5.14-13.767-8.703-22.204-8.703-7.047 0-13.625 2.11-19.172 5.267l5.14 9.36zM100.204-6l-4.22-9.672h-1.312l-8.5 8.36c-.86.796-1.656 1.25-2.172 1.25-1.188 0-2.438-2.438-2.438-10.875v-71.14l-9.093-3.564-.923.92v68.454c0 9.547 1.312 14.828 4.812 19.563 2.562 3.5 5.796 4.547 8.296 4.547 4.672 0 11.453-3.563 15.547-7.844zm0 0"/></symbol><symbol id="n" overflow="visible"><path d="M5.594 29.906c0-5.593-3.36-10.797-8.094-14.36-3.688-2.765-8.64-4.874-14.234-4.874-4.938 0-10.672 1.64-16.407 6.328l6 8.172h1.25c4.484-4.485 9.296-6.266 13.437-6.266 5.797 0 8.297 3.5 8.297 7.375 0 6.267-6.516 10.75-15.016 10.75s-22.53-4.42-36.562-21.874l-4.735 3.75c13.173 18.64 30.69 27.672 44.986 27.672 13.765 0 21.078-8.437 21.078-16.672zm0 0"/></symbol><symbol id="o" overflow="visible"><path d="M84.453-22.063c0-11.265-4.734-23.39-11.266-33.796L102.5-84.655l-6.39-6.985h-1.844l-27.14 27.015C55.202-79.905 38.733-91.97 23.905-91.97c-13.03 0-22.125 9.22-22.125 20.564 0 12.25 10.673 22.656 23.064 22.656 10.328 0 18.703-7.25 18.703-18.375 0-4.36-1.25-8.438-3.234-11.328l.406-.47c7.5 4.282 14.874 11.532 20.81 19.892l-.202.202C47.89-45.453 41.703-34.844 41.703-24.375c0 7.64 3.297 14.234 8.094 19.11 4.36 4.343 9.89 7.312 15.953 7.312 11.203 0 18.703-10.016 18.703-24.11zM21.22-56.53c-5.876 0-9.75-4.407-9.75-11.33 0-9.093 6.64-15.14 15.546-15.14 1.312 0 2.625.125 4.015.39 2.97 3.688 3.69 8.032 3.69 11.204 0 9.875-7.25 14.875-13.5 14.875zM61.733-6.063c-6.468 0-10.484-5.594-10.484-14.094 0-10.547 6.266-20.235 15.875-29.844 4.547 8.5 7.313 17.39 7.313 25.234 0 10.47-4.938 18.703-12.704 18.703zm0 0"/></symbol><symbol id="p" overflow="visible"><path d="M63.703-63.5c0-7.78-3.953-15.484-10.61-20.953-5.202-4.28-12.312-7.453-20.937-7.453-8.765 0-17 3.234-21.812 7.25l6.062 8.97h1.25c6-4.36 13.047-7.392 20.36-7.392 10.406 0 16.078 6.125 16.078 14.89 0 11.266-10.344 23.782-28 28.657-2.11-9.22-4.547-12.25-8.438-12.25-3.562 0-5.797 2.5-7.64 5.593l-1.188 1.984c-2.047 3.422-3.03 6.328-3.03 8.562 0 5.078 5 7.374 12.577 7.374 1.063 0 2.047-.062 3.094-.125C24.25-10.548 35.437 2.17 52.577 2.17c4.61 0 10-.922 14.547-2.766l.656-1.125-3.093-9.874c-3.624 1.578-8.624 2.89-13.624 2.89-8.58 0-19.5-3.546-23.657-20.546C45-32.938 63.703-46.516 63.703-63.5zm0 0"/></symbol><symbol id="q" overflow="visible"><path d="M41.375-6l-4.22-9.672h-1.31l-8.5 8.36c-.86.796-1.657 1.25-2.173 1.25-1.188 0-2.438-2.438-2.438-10.875v-71.14l-9.093-3.564-.92.92v68.454c0 9.547 1.31 14.828 4.81 19.563 2.564 3.5 5.798 4.547 8.298 4.547C30.5 1.844 37.28-1.72 41.375-6zm0 0"/></symbol><symbol id="r" overflow="visible"><path d="M87.813-6l-4.22-9.672h-1.312l-8.5 8.36c-.858.796-1.64 1.25-2.17 1.25-1.188 0-2.438-2.438-2.438-10.875v-71.14l-9.094-3.564-.922.92v23.064H40.39c-16.484 0-34.203 4.28-34.203 25.625 0 15.155 9.688 31.155 26.157 43.874l4.28-4.61c-13.827-13.11-19.89-25.36-19.89-36.89 0-14.5 8.625-18.125 29.907-18.125 3.422 0 8.032.077 12.516.202v35.312c0 9.547 1.313 14.828 4.813 19.563 2.56 3.5 5.796 4.547 8.296 4.547 4.687 0 11.468-3.563 15.546-7.844zm0 0"/></symbol><symbol id="s" overflow="visible"><path d="M41.375-6l-4.22-9.672h-1.31l-8.5 8.36c-.86.796-1.657 1.25-2.173 1.25-1.188 0-2.438-2.438-2.438-10.875v-64.485c0-26.422-11.015-51.125-32.422-51.125-13.703 0-21.61 10.14-21.61 20.953 0 4.078 1.126 7.828 2.642 11.266l9.75 3.297.797-.798c-1.718-3.563-2.78-7.578-2.78-11.14 0-6.844 3.828-14.548 13.78-14.548 15.672 0 19.83 18.11 19.83 39.594v61.656c0 9.547 1.31 14.828 4.81 19.563 2.564 3.5 5.798 4.547 8.298 4.547C30.5 1.844 37.28-1.72 41.375-6zm0 0"/></symbol><symbol overflow="visible"><path d="M25.172-22.14L44.797-40.33 25.11-59.672l6.53-6.625 19.047 20.125L69.453-66.25l6.813 6.64L56.344-40.5l19.922 19.625-6.47 6.453-19.28-20.187L31.984-14.42zM10.125 0h81v-81h-81zm0 0"/></symbol><symbol id="t" overflow="visible"><path d="M11.61-65.39c4.062-3.204 10.124-5.83 15.796-5.83 9.89 0 13.844 8 13.844 18.423 0 14.125-7.328 23.625-17.688 23.625-6.11 0-12.343-3.437-17.906-9.906L1.61-35.406c5.25 9.265 14.187 15.734 25.218 15.734 15.047 0 25-11.844 25-28.094 0-10.187-3.312-18.187-9.89-24.14-5.266-4.813-12.422-8.235-20.422-8.235-6.407 0-12.25 1.874-17.047 4.906l5.718 9.843zM89.812-5.61l-4.58-9.953H83.75l-6.688 7.61c-.796.922-1.484 1.547-2 1.547-1.03 0-1.953-2.172-1.953-9.5v-60.297L63.046-80.03l-.97 1.03v58.234c0 8.813 1.19 13.438 4.454 17.797 2.69 3.486 5.892 4.58 8.642 4.58 4.64 0 10.703-3.094 14.64-7.22zm0 0"/></symbol><symbol id="u" overflow="visible"><path d="M4.578 27.063c0-4.985-2.922-9.735-7.03-13.157-3.44-2.86-8.017-5.094-13.517-5.094-4.686 0-9.655 1.547-14.92 5.83L-24.938 23h1.312c3.78-3.72 8.063-5.438 11.78-5.438 4.814 0 6.86 2.797 6.86 6.125 0 5.438-5.546 8.985-12.92 8.985-8.017 0-19.564-4.016-31.923-19.234l-4.984 3.843c11.67 17.44 27.234 25.173 40 25.173 12.703 0 19.39-7.5 19.39-15.39zm0 0"/></symbol><symbol id="v" overflow="visible"><path d="M75.688-19c0-9.828-4.344-20.188-10.016-29.11l25.453-24.203-6.86-7.546H82.5L59.094-57.202C48.454-70.14 34.266-80.14 20.874-80.14 8.875-80.14.86-72.08.86-62.08.86-50.75 11.046-41.25 22.312-41.25c9.093 0 16.25-6.297 16.25-15.734 0-3.72-1.094-7.266-2.922-9.89l.282-.517c6.406 3.374 12.53 9.03 17.516 15.67C41.766-40.452 36.266-31.47 36.266-22.42c0 6.97 3.265 13.047 7.734 17.39 4 4 9.266 6.86 14.922 6.86 9.844 0 16.766-8.47 16.766-20.828zM18.53-49.25c-4.796 0-7.655-3.61-7.655-8.984 0-7.328 5.25-12.422 13.266-12.422.75 0 1.547.062 2.297.125 2.282 2.905 3.032 6.28 3.032 9.093 0 7.89-5.736 12.187-10.94 12.187zm35.986 42.5c-5.094 0-8.172-4.406-8.172-11.094 0-8.703 5.03-16.36 13.093-24.265 3.485 6.704 5.61 13.735 5.61 19.907 0 8.812-4.344 15.453-10.53 15.453zm0 0"/></symbol><symbol id="w" overflow="visible"><path d="M56.922-54.063c0-7.156-3.953-14.296-10.063-19.328-4.985-4.063-11.39-6.704-18.766-6.704-7.735 0-15.11 2.813-19.625 6.75l6.467 9.266h1.422c5.328-4.11 11.39-6.75 17.734-6.75 8.234 0 12.64 4.47 12.64 11.625 0 9.437-8.343 19.437-22.875 23.28-1.657-7.843-4.126-10.468-7.61-10.468-3.266 0-5.438 2.218-7.375 5.265l-1.03 1.703c-2.017 3.156-2.86 5.953-2.86 8.078 0 4.797 4.796 7.14 12.406 7.094.688 0 1.376 0 2.063-.063C21.906-8.578 31.47 1.892 46.28 1.892c4.236 0 9.267-.86 13.736-2.64L60.64-2l-3.546-10.125c-3.313 1.547-8.063 2.86-12.532 2.86-7.03 0-15.734-3.032-19.28-15.797 15.624-3.08 31.64-14.532 31.64-29zm0 0"/></symbol><symbol id="x" overflow="visible"><path d="M38.39-5.61l-4.578-9.953h-1.484l-6.703 7.61c-.797.922-1.484 1.547-2 1.547-1.03 0-1.938-2.172-1.938-9.5v-60.297L11.61-80.03 10.64-79v58.234c0 8.813 1.204 13.438 4.47 17.797C17.796.517 21 1.61 23.733 1.61c4.64 0 10.703-3.094 14.657-7.22zm0 0"/></symbol><symbol id="y" overflow="visible"><path d="M79.172-5.61l-4.578-9.953H73.11l-6.688 7.61c-.797.922-1.484 1.547-2 1.547-1.03 0-1.953-2.172-1.953-9.5v-60.297L52.405-80.03 51.438-79v19.844l-16.89-.047c-14.986-.063-29.564 4.86-29.564 22.25 0 12.875 8.75 27.172 23.672 38.734l4.407-4.64C21.733-14.187 16.64-24.483 16.64-33.983c0-11.438 6.813-14.703 23.922-14.75 3.266 0 7.094.047 10.876.172v27.796c0 8.813 1.187 13.438 4.453 17.797 2.688 3.486 5.89 4.58 8.64 4.58 4.642 0 10.704-3.094 14.642-7.22zm0 0"/></symbol><symbol id="z" overflow="visible"><path d="M38.39-5.61l-4.578-9.953h-1.484l-6.703 7.61c-.797.922-1.484 1.547-2 1.547-1.03 0-1.938-2.172-1.938-9.5v-54.11c0-23.296-11.28-45.89-31.36-45.89-11.843 0-19.218 8.062-19.218 17.797 0 3.61.968 7.157 2.406 10.235l10.36 3.547.905-.97c-1.42-2.92-2.342-6.514-2.342-9.436 0-5.61 3.265-11.672 11.218-11.672 12.922 0 16.985 14.015 16.985 33.125v52.514c0 8.813 1.204 13.438 4.47 17.797C17.796.517 21 1.61 23.733 1.61c4.64 0 10.703-3.094 14.657-7.22zm0 0"/></symbol></defs><g><use x="13.241" xlink:href="#a" y="108.967"/><use x="91.976" xlink:href="#b" y="108.967"/><use x="161.385" xlink:href="#c" y="108.967"/><use x="214.15" xlink:href="#d" y="108.967"/><use x="256.646" xlink:href="#e" y="108.967"/><use x="449.747" xlink:href="#f" y="108.967"/><use x="526.192" xlink:href="#g" y="108.967"/><use x="526.192" xlink:href="#h" y="108.967"/><use x="607.502" xlink:href="#i" y="108.967"/><use x="662.999" xlink:href="#j" y="108.967"/><use x="695.563" xlink:href="#k" y="108.967"/><use x="763.173" xlink:href="#l" y="108.967"/><use x="13.241" xlink:href="#a" y="486.67"/><use x="91.976" xlink:href="#b" y="486.67"/><use x="161.385" xlink:href="#c" y="486.67"/><use x="214.15" xlink:href="#d" y="486.67"/><use x="256.646" xlink:href="#e" y="486.67"/><path d="M461.734 222.44c4.875-3.49 12.055-6.256 18.512-6.256 12.32 0 17.39 10.078 17.39 23.12 0 16.67-8.234 28.786-21.015 28.786-7.18 0-14.753-4.082-21.276-11.856l-3.49 3.555c6.193 10.675 16.072 17.062 27.47 17.062 16.797 0 28.324-13.832 28.324-33.067 0-11.793-3.687-20.75-10.933-27.273-5.73-5.137-13.77-8.696-22.2-8.696-7.05 0-13.636 2.11-19.17 5.27l5.14 9.355zm88.207 71.34l-4.217-9.682h-1.317l-8.496 8.367c-.86.79-1.648 1.25-2.176 1.25-1.183 0-2.437-2.438-2.437-10.867v-71.145l-9.09-3.558-.922.925v68.442c0 9.55 1.317 14.82 4.81 19.562 2.57 3.492 5.796 4.547 8.3 4.547 4.675 0 11.46-3.557 15.546-7.84zm0 0M555.805 329.684c0-5.598-3.36-10.805-8.102-14.36-3.69-2.77-8.633-4.875-14.23-4.875-4.942 0-10.672 1.644-16.403 6.323l5.996 8.168h1.25c4.48-4.48 9.29-6.256 13.438-6.256 5.797 0 8.3 3.488 8.3 7.375 0 6.256-6.523 10.737-15.02 10.737-8.495 0-22.526-4.414-36.557-21.87l-4.743 3.757c13.172 18.64 30.696 27.664 44.99 27.664 13.768 0 21.08-8.43 21.08-16.664zm0 0M634.656 277.707c0-11.262-4.746-23.383-11.265-33.793l29.313-28.785-6.387-6.985h-1.847l-27.142 27.01c-11.922-15.284-28.39-27.34-43.21-27.34-13.044 0-22.134 9.224-22.134 20.556 0 12.25 10.672 22.66 23.055 22.66 10.34 0 18.706-7.245 18.706-18.378 0-4.347-1.25-8.433-3.226-11.332l.394-.46c7.508 4.28 14.887 11.527 20.816 19.894l-.2.195c-13.436 13.374-19.628 23.98-19.628 34.452 0 7.64 3.293 14.23 8.102 19.106 4.348 4.347 9.883 7.312 15.94 7.312 11.2 0 18.712-10.015 18.712-24.113zm-63.242-34.45c-5.863 0-9.746-4.413-9.746-11.33 0-9.09 6.652-15.15 15.543-15.15 1.32 0 2.638.13 4.02.395 2.965 3.687 3.688 8.035 3.688 11.2 0 9.878-7.246 14.886-13.504 14.886zm40.516 50.458c-6.457 0-10.477-5.598-10.477-14.098 0-10.54 6.258-20.222 15.875-29.84 4.547 8.5 7.313 17.39 7.313 25.23 0 10.473-4.937 18.708-12.71 18.708zm0 0M725.496 236.273c0-7.773-3.953-15.48-10.605-20.945-5.206-4.285-12.32-7.445-20.95-7.445-8.76 0-16.995 3.226-21.803 7.246l6.062 8.956h1.25c5.995-4.344 13.042-7.375 20.355-7.375 10.406 0 16.074 6.126 16.074 14.888 0 11.26-10.345 23.78-27.997 28.656-2.11-9.223-4.547-12.254-8.434-12.254-3.56 0-5.798 2.504-7.64 5.598l-1.19 1.976c-2.038 3.426-3.026 6.324-3.026 8.567 0 5.07 5.004 7.376 12.582 7.376 1.05 0 2.04-.063 3.094-.13 2.77 17.848 13.964 30.563 31.093 30.563 4.61 0 10.012-.923 14.56-2.766l.655-1.122-3.094-9.878c-3.625 1.578-8.63 2.898-13.636 2.898-8.563 0-19.5-3.56-23.65-20.555 17.59-3.687 36.298-17.257 36.298-34.254zm0 0M776.68 293.78l-4.22-9.682h-1.315l-8.497 8.367c-.855.79-1.648 1.25-2.175 1.25-1.184 0-2.438-2.438-2.438-10.867v-71.145l-9.09-3.558-.922.92v68.447c0 9.55 1.317 14.82 4.81 19.562 2.57 3.492 5.796 4.547 8.3 4.547 4.676 0 11.46-3.557 15.547-7.84zm0 0M864.75 293.78l-4.215-9.682h-1.316l-8.5 8.367c-.857.79-1.646 1.25-2.173 1.25-1.188 0-2.438-2.438-2.438-10.867v-71.145l-9.09-3.558-.922.92v23.06H817.32c-16.465 0-34.187 4.28-34.187 25.625 0 15.148 9.683 31.156 26.152 43.87l4.28-4.608c-13.83-13.11-19.893-25.364-19.893-36.89 0-14.493 8.633-18.118 29.91-18.118 3.422 0 8.035.066 12.516.2v35.308c0 9.55 1.316 14.82 4.808 19.562 2.567 3.492 5.797 4.547 8.3 4.547 4.677 0 11.462-3.558 15.544-7.84zm0 0M906.383 293.78l-4.215-9.682h-1.316l-8.5 8.367c-.856.79-1.65 1.25-2.172 1.25-1.188 0-2.438-2.438-2.438-10.867v-64.493c0-26.414-11.004-51.117-32.41-51.117-13.703 0-21.61 10.145-21.61 20.95 0 4.082 1.122 7.835 2.637 11.26l9.75 3.298.788-.793c-1.71-3.555-2.765-7.574-2.765-11.133 0-6.847 3.82-14.558 13.765-14.558 15.68 0 19.83 18.117 19.83 39.59v61.66c0 9.55 1.315 14.82 4.807 19.562 2.57 3.492 5.797 4.547 8.3 4.547 4.68 0 11.462-3.557 15.548-7.84zm0 0" fill="none" stroke-width=".666" stroke="#000" stroke-miterlimit="44.996"/><use x="449.747" xlink:href="#m" y="299.777"/><use x="550.177" xlink:href="#n" y="299.777"/><use x="550.177" xlink:href="#o" y="299.777"/><use x="661.812" xlink:href="#p" y="299.777"/><use x="735.38" xlink:href="#q" y="299.777"/><use x="776.957" xlink:href="#r" y="299.777"/><use x="864.968" xlink:href="#s" y="299.777"/><use x="13.241" xlink:href="#a" y="299.777"/><use x="91.976" xlink:href="#b" y="299.777"/><use x="161.385" xlink:href="#c" y="299.777"/><use x="214.15" xlink:href="#d" y="299.777"/><use x="256.646" xlink:href="#e" y="299.777"/><use x="449.746" xlink:href="#t" y="486.67"/><use x="538.479" xlink:href="#u" y="486.67"/><use x="538.479" xlink:href="#v" y="486.67"/><use x="634.949" xlink:href="#w" y="486.67"/><use x="699.535" xlink:href="#x" y="486.67"/><use x="736.927" xlink:href="#y" y="486.67"/><use x="815.111" xlink:href="#z" y="486.67"/><path d="M387.04 18.645H6M387.04 396.352H6M387.04 43.105H6M387.04 420.81H6M387.04 109.418H6M387.04 487.12H6M387.04 209.355H6M387.04 233.816H6M387.04 300.13H6" fill="none" stroke-width=".5" stroke="rgb(80.392456%,8.235168%,16.862488%)"/><path d="M375 43h-14.29V19H375zm0 0" fill="rgb(80.392456%,8.235168%,16.862488%)"/><path d="M375 109h-14.29V43H375zm0 0" fill="rgb(90.196228%,54.118347%,58.432007%)"/><path d="M375 234h-14.29v-25H375zm0 0" fill="rgb(80.392456%,8.235168%,16.862488%)"/><path d="M375 300h-14.29v-66H375zm0 0" fill="rgb(90.196228%,54.118347%,58.432007%)"/><path d="M375 421h-14.29v-25H375zm0 0" fill="rgb(80.392456%,8.235168%,16.862488%)"/><path d="M375 487h-14.29v-66H375zm0 0" fill="rgb(90.196228%,54.118347%,58.432007%)"/><path d="M915.977 18.645H403.04M915.977 396.352H403.04M915.977 43.105H403.04M915.977 420.81H403.04M915.977 407.668H403.04M915.977 109.418H403.04M915.977 487.12H403.04M915.977 209.355H403.04M915.977 233.816H403.04M915.977 300.13H403.04" fill="none" stroke-width=".5" stroke="rgb(80.392456%,8.235168%,16.862488%)"/><path d="M430.453 109h-14.29V43h14.29zm0 0M430.453 300h-14.29v-91h14.29zm0 0M430.453 487h-14.29v-79h14.29zm0 0" fill="rgb(90.196228%,54.118347%,58.432007%)"/></g></svg>